<svg width="24" height="24" viewBox="0 0 24 24" fill="none" xmlns="http://www.w3.org/2000/svg">
<path fill-rule="evenodd" clip-rule="evenodd" d="M17 1H7C3.68629 1 1 3.68629 1 7V17C1 20.3137 3.68629 23 7 23H17C20.3137 23 23 20.3137 23 17V7C23 3.68629 20.3137 1 17 1ZM7 3H17C19.2091 3 21 4.79086 21 7V17C21 19.2091 19.2091 21 17 21H7C4.79086 21 3 19.2091 3 17V7C3 4.79086 4.79086 3 7 3ZM7.57709 9.70878C6.6073 11.6355 6.98247 13.967 8.50773 15.4923C10.033 17.0175 12.3645 17.3927 14.2912 16.4229C16.218 15.4531 17.3056 13.357 16.9892 11.2233C16.6661 9.0446 14.9554 7.33389 12.7767 7.01082C10.643 6.69441 8.54688 7.78203 7.57709 9.70878ZM12.4833 8.98918C13.7905 9.18303 14.817 10.2095 15.0108 11.5167C15.2007 12.7969 14.5481 14.0546 13.392 14.6364C12.236 15.2183 10.8371 14.9932 9.92195 14.0781C9.00679 13.1629 8.78169 11.764 9.36356 10.608C9.94543 9.45191 11.2031 8.79934 12.4833 8.98918ZM18.51 6.5C18.51 5.94772 18.0623 5.5 17.51 5.5L17.3834 5.50673C16.886 5.56449 16.5 5.98716 16.5 6.5C16.5 7.05228 16.9477 7.5 17.5 7.5L17.6266 7.49327C18.124 7.43551 18.51 7.01284 18.51 6.5Z" fill="black"/>
</svg>
